HIERARCHY
ROOT Hips
{
    OFFSET   0.000000   0.000000   0.000000
    CHANNELS 6 Xposition Yposition Zposition Zrotation Xrotation Yrotation
    JOINT Chest
    {
        OFFSET   0.000000   8.007230   0.000000
        CHANNELS 3 Zrotation Xrotation Yrotation
        JOINT Chest2
        {
            OFFSET   0.000000  22.077100   0.000000
            CHANNELS 3 Zrotation Xrotation Yrotation
            JOINT Neck
            {
                OFFSET   0.000000  23.254800  -0.000021
                CHANNELS 3 Zrotation Xrotation Yrotation
                JOINT Head
                {
                    OFFSET   0.000000  14.370000   1.956610
                    CHANNELS 3 Zrotation Xrotation Yrotation
                    End Site
                    {
                        OFFSET   0.000000  19.566000   0.000000
                    }
                }
            }
            JOINT LeftCollar
            {
                OFFSET   3.911900  19.017000  -0.467063
                CHANNELS 3 Zrotation Xrotation Yrotation
                JOINT LeftShoulder
                {
                    OFFSET  10.383700   0.000000   0.000000
                    CHANNELS 3 Zrotation Xrotation Yrotation
                    JOINT LeftElbow
                    {
                        OFFSET  26.662100   0.001529   0.000325
                        CHANNELS 3 Zrotation Xrotation Yrotation
                        JOINT LeftWrist
                        {
                            OFFSET  28.869000  -0.000011  -0.000096
                            CHANNELS 3 Zrotation Xrotation Yrotation
                            JOINT LeftFinger0
                            {
                                OFFSET   2.044650  -2.323460   3.252850
                                CHANNELS 3 Zrotation Xrotation Yrotation
                                JOINT LeftFinger01
                                {
                                    OFFSET   3.088130   0.000000   0.000000
                                    CHANNELS 3 Zrotation Xrotation Yrotation
                                    JOINT LeftFinger02
                                    {
                                        OFFSET   2.639460   0.000000   0.000000
                                        CHANNELS 3 Zrotation Xrotation Yrotation
                                        End Site
                                        {
                                            OFFSET   2.582190   0.000000   0.000000
                                        }
                                    }
                                }
                            }
                            JOINT LeftFinger1
                            {
                                OFFSET   8.364480   0.000000   3.252850
                                CHANNELS 3 Zrotation Xrotation Yrotation
                                JOINT LeftFinger11
                                {
                                    OFFSET   4.646930   0.000000   0.000000
                                    CHANNELS 3 Zrotation Xrotation Yrotation
                                    JOINT LeftFinger12
                                    {
                                        OFFSET   2.323460   0.000000   0.000000
                                        CHANNELS 3 Zrotation Xrotation Yrotation
                                        End Site
                                        {
                                            OFFSET   2.273050   0.000000   0.000000
                                        }
                                    }
                                }
                            }
                            JOINT LeftFinger2
                            {
                                OFFSET   8.364480   0.000016   1.078090
                                CHANNELS 3 Zrotation Xrotation Yrotation
                                JOINT LeftFinger21
                                {
                                    OFFSET   5.111620   0.000000   0.000000
                                    CHANNELS 3 Zrotation Xrotation Yrotation
                                    JOINT LeftFinger22
                                    {
                                        OFFSET   2.788160   0.000017   0.000000
                                        CHANNELS 3 Zrotation Xrotation Yrotation
                                        End Site
                                        {
                                            OFFSET   2.727660   0.000000   0.000000
                                        }
                                    }
                                }
                            }
                            JOINT LeftFinger3
                            {
                                OFFSET   7.899780   0.000015  -1.078090
                                CHANNELS 3 Zrotation Xrotation Yrotation
                                JOINT LeftFinger31
                                {
                                    OFFSET   4.646920   0.000000   0.000000
                                    CHANNELS 3 Zrotation Xrotation Yrotation
                                    JOINT LeftFinger32
                                    {
                                        OFFSET   2.323470   0.000000   0.000000
                                        CHANNELS 3 Zrotation Xrotation Yrotation
                                        End Site
                                        {
                                            OFFSET   2.273050   0.000000   0.000000
                                        }
                                    }
                                }
                            }
                            JOINT LeftFinger4
                            {
                                OFFSET   7.435090   0.000000  -3.252850
                                CHANNELS 3 Zrotation Xrotation Yrotation
                                JOINT LeftFinger41
                                {
                                    OFFSET   3.717550   0.000000   0.000000
                                    CHANNELS 3 Zrotation Xrotation Yrotation
                                    JOINT LeftFinger42
                                    {
                                        OFFSET   1.858760   0.000000   0.000000
                                        CHANNELS 3 Zrotation Xrotation Yrotation
                                        End Site
                                        {
                                            OFFSET   1.818440   0.000000   0.000000
                                        }
                                    }
                                }
                            }
                        }
                    }
                }
            }
            JOINT RightCollar
            {
                OFFSET  -3.911900  19.017000  -0.467062
                CHANNELS 3 Zrotation Xrotation Yrotation
                JOINT RightShoulder
                {
                    OFFSET -10.383700   0.000015   0.000000
                    CHANNELS 3 Zrotation Xrotation Yrotation
                    JOINT RightElbow
                    {
                        OFFSET -26.662100   0.001341   0.000385
                        CHANNELS 3 Zrotation Xrotation Yrotation
                        JOINT RightWrist
                        {
                            OFFSET -28.869000   0.000025  -0.000080
                            CHANNELS 3 Zrotation Xrotation Yrotation
                            JOINT RightFinger0
                            {
                                OFFSET  -2.044650  -2.323490   3.252850
                                CHANNELS 3 Zrotation Xrotation Yrotation
                                JOINT RightFinger01
                                {
                                    OFFSET  -3.088130   0.000000   0.000000
                                    CHANNELS 3 Zrotation Xrotation Yrotation
                                    JOINT RightFinger02
                                    {
                                        OFFSET  -2.639460   0.000000   0.000000
                                        CHANNELS 3 Zrotation Xrotation Yrotation
                                        End Site
                                        {
                                            OFFSET  -2.582190   0.000000   0.000000
                                        }
                                    }
                                }
                            }
                            JOINT RightFinger1
                            {
                                OFFSET  -8.364480   0.000000   3.252850
                                CHANNELS 3 Zrotation Xrotation Yrotation
                                JOINT RightFinger11
                                {
                                    OFFSET  -4.646930   0.000000   0.000000
                                    CHANNELS 3 Zrotation Xrotation Yrotation
                                    JOINT RightFinger12
                                    {
                                        OFFSET  -2.323470   0.000000   0.000000
                                        CHANNELS 3 Zrotation Xrotation Yrotation
                                        End Site
                                        {
                                            OFFSET  -2.273050   0.000000   0.000000
                                        }
                                    }
                                }
                            }
                            JOINT RightFinger2
                            {
                                OFFSET  -8.364480   0.000000   1.078090
                                CHANNELS 3 Zrotation Xrotation Yrotation
                                JOINT RightFinger21
                                {
                                    OFFSET  -5.111610   0.000000   0.000000
                                    CHANNELS 3 Zrotation Xrotation Yrotation
                                    JOINT RightFinger22
                                    {
                                        OFFSET  -2.788160   0.000000   0.000000
                                        CHANNELS 3 Zrotation Xrotation Yrotation
                                        End Site
                                        {
                                            OFFSET  -2.727660   0.000000   0.000000
                                        }
                                    }
                                }
                            }
                            JOINT RightFinger3
                            {
                                OFFSET  -7.899780   0.000000  -1.078090
                                CHANNELS 3 Zrotation Xrotation Yrotation
                                JOINT RightFinger31
                                {
                                    OFFSET  -4.646920   0.000000   0.000000
                                    CHANNELS 3 Zrotation Xrotation Yrotation
                                    JOINT RightFinger32
                                    {
                                        OFFSET  -2.323470   0.000000   0.000000
                                        CHANNELS 3 Zrotation Xrotation Yrotation
                                        End Site
                                        {
                                            OFFSET  -2.273050   0.000000   0.000000
                                        }
                                    }
                                }
                            }
                            JOINT RightFinger4
                            {
                                OFFSET  -7.435090   0.000000  -3.252850
                                CHANNELS 3 Zrotation Xrotation Yrotation
                                JOINT RightFinger41
                                {
                                    OFFSET  -3.717550   0.000000   0.000000
                                    CHANNELS 3 Zrotation Xrotation Yrotation
                                    JOINT RightFinger42
                                    {
                                        OFFSET  -1.858770   0.000000   0.000000
                                        CHANNELS 3 Zrotation Xrotation Yrotation
                                        End Site
                                        {
                                            OFFSET  -1.818440   0.000000   0.000000
                                        }
                                    }
                                }
                            }
                        }
                    }
                }
            }
        }
    }
    JOINT LeftHip
    {
        OFFSET   9.783010   0.000000   0.000000
        CHANNELS 3 Zrotation Xrotation Yrotation
        JOINT LeftKnee
        {
            OFFSET   0.000070 -41.789100   0.000028
            CHANNELS 3 Zrotation Xrotation Yrotation
            JOINT LeftAnkle
            {
                OFFSET   0.000087 -41.133200  -0.000100
                CHANNELS 3 Zrotation Xrotation Yrotation
                JOINT LeftToe
                {
                    OFFSET   0.000000  -6.358960  14.674500
                    CHANNELS 3 Zrotation Xrotation Yrotation
                    End Site
                    {
                        OFFSET   0.000000   0.000000   3.913200
                    }
                }
            }
        }
    }
    JOINT RightHip
    {
        OFFSET  -9.783020   0.000000   0.000000
        CHANNELS 3 Zrotation Xrotation Yrotation
        JOINT RightKnee
        {
            OFFSET   0.000044 -41.789100  -0.000870
            CHANNELS 3 Zrotation Xrotation Yrotation
            JOINT RightAnkle
            {
                OFFSET  -0.000090 -41.133200  -0.000245
                CHANNELS 3 Zrotation Xrotation Yrotation
                JOINT RightToe
                {
                    OFFSET   0.000000  -6.358960  14.674500
                    CHANNELS 3 Zrotation Xrotation Yrotation
                    End Site
                    {
                        OFFSET   0.000000   0.000000   3.913200
                    }
                }
            }
        }
    }
}
MOTION
Frames: 4
Frame Time:   0.016667
  1.348140  89.427600  -0.247165  -1.028060   3.371050   1.897630   0.291363  -2.092390  -0.461792   0.566393  -4.187050  -0.913834  -0.808903   3.145040   0.048296  -1.339960   6.373190   1.751410   2.504800   3.691730   9.497640 -83.902500  -1.789410   6.521210   0.389646   7.969750 -14.248600   6.003880  -6.119640  -2.508950  38.518000  29.993200 -53.301500 -31.810700  -0.000354  -0.000136 -10.905300  -0.000234   0.000267 -21.556100  -1.292530   3.299380 -17.667000   0.000723   0.009566 -12.366900  -0.001177   0.006511 -26.220800  -3.096260   6.268220 -26.390600  -0.001219   0.004220 -17.576100  -0.002831   0.001886 -19.821800  -2.471880   6.793310 -19.969400   0.000660   0.007757 -13.299700   0.006878   0.001693 -21.969700  -3.078690   7.583350 -33.260800  -0.009153   0.006282 -22.151700  -0.000600   0.002850   5.041520   9.102980   2.821350  75.937300 -12.091600  -0.801044   3.266440  -5.791940  10.690500  -9.846990  -0.277944   4.348990 -53.100200  49.564000  98.042500   9.690730   0.001104  -0.000150  -0.154641  -0.001301  -0.000358  18.417600   0.419930   1.266370  15.072700  -0.001380   0.003178  10.550900  -0.002670   0.002372  17.995600   0.084215   0.259182  17.995700  -0.012082   0.003939  11.985100   0.000000  -0.000205  18.024700  -0.529019  -1.628290  18.032200  -0.005758   0.004628  12.009400  -0.006485   0.002144  20.338500  -0.594072  -1.605550  30.520300   0.003891   0.006852  20.326500   0.004249   0.005707   3.156760  -1.089620  -0.216784   0.535672   0.052963  11.657200  -4.497000  -1.935810  -2.287820   0.000000   0.000000   0.000000  -2.627220  -0.003392  -3.986450   1.704840   0.230566 -12.177800   0.520577  -2.834320  -0.765824   0.000000   0.000000  -0.000000
  1.348060  89.428000  -0.258110  -1.028280   3.351310   1.912540   0.292649  -2.068330  -0.453794   0.569443  -4.138890  -0.897879  -0.821648   3.157130   0.048154  -1.361300   6.398290   1.781130   2.490730   3.664980   9.485740 -83.879400  -1.744080   6.509900   0.400335   7.978220 -14.281500   6.036360  -6.165730  -2.513790  38.497200  29.991000 -53.304000 -31.847400  -0.000369  -0.000182 -10.923600  -0.000240   0.000276 -21.593000  -1.292410   3.284700 -17.697100   0.000719   0.009583 -12.388000  -0.001178   0.006517 -26.256500  -3.103670   6.268260 -26.426500  -0.001238   0.004252 -17.600000  -0.002827   0.001899 -19.854200  -2.471880   6.793310 -20.001400   0.000658   0.007796 -13.321000   0.006877   0.001686 -21.995600  -3.084000   7.586520 -33.300300  -0.009157   0.006331 -22.178000  -0.000594   0.002845   5.039530   9.063060   2.808450  75.937600 -12.033400  -0.800954   3.273360  -5.775670  10.713000  -9.880900  -0.264228   4.319390 -53.112300  49.580000  98.072100   9.697990   0.001100  -0.000139  -0.151008  -0.001298  -0.000338  18.445100   0.419930   1.276340  15.095200  -0.001384   0.003181  10.566600  -0.002670   0.002375  18.022300   0.089480   0.274750  18.022400  -0.012082   0.003945  12.002900   0.000000  -0.000203  18.051900  -0.529020  -1.623080  18.059400  -0.005758   0.004632  12.027500  -0.006482   0.002145  20.367900  -0.594073  -1.600330  30.564300   0.003891   0.006856  20.355800   0.004251   0.005710   3.156680  -1.063570  -0.223097   0.534669   0.027004  11.657700  -4.494190  -1.914030  -2.293690   0.000000   0.000000   0.000000  -2.632250   0.004525  -3.976310   1.706870   0.241535 -12.195800   0.522427  -2.834400  -0.770823   0.000000   0.000000  -0.000000
  1.347920  89.428700  -0.276060  -1.028910   3.319150   1.941890   0.295623  -2.030660  -0.440038   0.576164  -4.063500  -0.870397  -0.843957   3.181230   0.048012  -1.398630   6.447650   1.839850   2.471030   3.625210   9.470990 -83.844300  -1.664200   6.489260   0.418955   7.990220 -14.335000   6.068130  -6.211800  -2.525210  38.473500  29.984400 -53.307200 -31.886400  -0.000398  -0.000244 -10.943200  -0.000253   0.000294 -21.649600  -1.292310   3.263620 -17.743300   0.000707   0.009626 -12.420300  -0.001183   0.006532 -26.321600  -3.114940   6.268330 -26.492200  -0.001274   0.004324 -17.643800  -0.002818   0.001929 -19.902700  -2.471880   6.793310 -20.049400   0.000652   0.007886 -13.352900   0.006877   0.001671 -22.036500  -3.095320   7.598590 -33.363200  -0.009170   0.006439 -22.219900  -0.000580   0.002833   5.030540   8.993760   2.776170  75.938300 -11.946600  -0.801284   3.288860  -5.742040  10.735200  -9.927290  -0.241631   4.269890 -53.124500  49.596000  98.101700   9.715480   0.001092  -0.000109  -0.142261  -0.001294  -0.000311  18.493600   0.419930   1.286300  15.135000  -0.001390   0.003190  10.594500  -0.002667   0.002382  18.070000   0.094744   0.290317  18.070100  -0.012083   0.003957  12.034700   0.000000  -0.000196  18.103800  -0.529024  -1.617860  18.111300  -0.005754   0.004639  12.062100  -0.006478   0.002153  20.423400  -0.594077  -1.595110  30.647500   0.003891   0.006863  20.411200   0.004255   0.005715   3.156520  -1.027660  -0.232133   0.531525   0.001045  11.658100  -4.491160  -1.882630  -2.306920  -0.000000   0.000000  -0.000000  -2.639750   0.023567  -3.960790   1.708970   0.252490 -12.226700   0.524020  -2.834470  -0.781027   0.000000   0.000000   0.000000
  1.347780  89.429400  -0.289781  -1.027830   3.295320   1.974270   0.299962  -2.006280  -0.425000   0.585609  -4.014710  -0.840247  -0.864172   3.207960   0.048690  -1.432420   6.500970   1.898650   2.463730   3.605570   9.467610 -83.824100  -1.588440   6.467310   0.437391   7.993650 -14.371200   6.051750  -6.211390  -2.542660  38.460700  29.966900 -53.306000 -31.889100  -0.000423  -0.000267 -10.944600  -0.000274   0.000315 -21.683000  -1.293670   3.255920 -17.770600   0.000689   0.009691 -12.439500  -0.001192   0.006554 -26.381600  -3.120820   6.263850 -26.556900  -0.001321   0.004426 -17.686900  -0.002803   0.001976 -19.924500  -2.478350   6.802290 -20.071600   0.000641   0.008020 -13.367700   0.006874   0.001649 -22.059900  -3.111530   7.631010 -33.401300  -0.009190   0.006593 -22.245300  -0.000559   0.002815   5.012870   8.936190   2.720590  75.935600 -11.890800  -0.823834   3.313930  -5.696250  10.734100  -9.942860  -0.226063   4.229360 -53.069800  49.561500  98.027900   9.742910   0.001083  -0.000045  -0.128541  -0.001305  -0.000306  18.539900   0.419932   1.270250  15.172800  -0.001393   0.003206  10.621000  -0.002656   0.002390  18.115200   0.088102   0.269485  18.115300  -0.012095   0.003971  12.064800   0.000000  -0.000179  18.161300  -0.535750  -1.633930  18.168900  -0.005748   0.004640  12.100500  -0.006473   0.002168  20.486100  -0.601582  -1.610860  30.741900   0.003896   0.006873  20.474100   0.004261   0.005716   3.156360  -1.014260  -0.235771   0.529003   0.001157  11.652300  -4.491000  -1.865930  -2.324810   0.000000   0.000000  -0.000000  -2.643820   0.055218  -3.949360   1.712640   0.222603 -12.253800   0.521477  -2.814770  -0.792755   0.000000   0.000000   0.000000
